<svg width="36" height="36" viewBox="0 0 36 36" fill="none" xmlns="http://www.w3.org/2000/svg">
<path d="M24.3218 2C22.6132 2.11818 20.6162 3.21185 19.4524 4.63602C18.3908 5.92799 17.5174 7.84692 17.858 9.71176C19.7248 9.76985 21.6538 8.65014 22.7715 7.20193C23.8171 5.85388 24.6083 3.94697 24.3218 2Z" fill="black"/>
<path d="M31.0726 12.7519C29.4321 10.6948 27.1266 9.50098 24.9492 9.50098C22.0749 9.50098 20.859 10.8771 18.862 10.8771C16.8028 10.8771 15.2384 9.50498 12.7526 9.50498C10.3109 9.50498 7.71096 10.9973 6.06244 13.5491C3.74491 17.1426 4.14151 23.8989 7.89724 29.6537C9.24129 31.7128 11.036 34.0284 13.3836 34.0484C15.4728 34.0684 16.0617 32.7084 18.892 32.6943C21.7223 32.6783 22.2591 34.0664 24.3443 34.0444C26.6939 34.0264 28.5868 31.4605 29.9308 29.4013C30.8943 27.9251 31.2529 27.1819 32 25.5154C26.5657 23.4462 25.6944 15.7185 31.0726 12.7519Z" fill="black"/>
</svg>
