<svg width="36" height="36" viewBox="0 0 36 36" fill="none" xmlns="http://www.w3.org/2000/svg">
<path d="M8.43114 2.50709C7.69705 2.03275 6.81532 1.88938 5.98828 2.08461L20.5222 16.6186L25.2327 11.9081L8.43114 2.50709Z" fill="black"/>
<path d="M4.18555 3.26562C3.78018 3.80454 3.54688 4.46625 3.54688 5.16623V31.0554C3.54688 31.7554 3.78024 32.4171 4.18555 32.956L19.0307 18.1109L4.18555 3.26562Z" fill="black"/>
<path d="M31.3792 15.3482L27.1457 12.9795L22.0137 18.1115L27.146 23.2438L31.3799 20.8749C32.3942 20.3066 32.9997 19.2737 32.9997 18.1115C32.9997 16.9494 32.3942 15.9165 31.3792 15.3482Z" fill="black"/>
<path d="M20.5213 19.6045L5.98828 34.1375C6.22656 34.1936 6.46905 34.2238 6.71154 34.2238C7.31082 34.2238 7.90801 34.0534 8.43032 33.7159L25.232 24.3151L20.5213 19.6045Z" fill="black"/>
</svg>
