<svg id="Group_12" data-name="Group 12" xmlns="http://www.w3.org/2000/svg" width="39.765" height="32.552" viewBox="0 0 39.765 32.552">
  <g id="logo-twitter" transform="translate(0 0)">
    <path id="Shape" d="M39.765,3.756a14.621,14.621,0,0,1-4.722,1.252A7.072,7.072,0,0,0,38.522.5a16.233,16.233,0,0,1-5.219,2A8.646,8.646,0,0,0,27.338,0a8.261,8.261,0,0,0-7.953,8.263,3.738,3.738,0,0,0,.249,1.753A22.811,22.811,0,0,1,2.734,1.5,7.719,7.719,0,0,0,1.74,5.759,8.232,8.232,0,0,0,5.468,12.52a10.354,10.354,0,0,1-3.728-1h0A8.068,8.068,0,0,0,8.2,19.531a6.832,6.832,0,0,1-2.237.25,3.131,3.131,0,0,1-1.491-.25,8.061,8.061,0,0,0,7.7,5.759A15.729,15.729,0,0,1,1.988,28.8H0a24.118,24.118,0,0,0,12.427,3.756c14.912,0,23.113-12.52,23.113-23.287v-1A14.513,14.513,0,0,0,39.765,3.756Z" fill="#fff"/>
  </g>
</svg>
